<?xml version="1.0" standalone="no"?>
<!DOCTYPE svg PUBLIC "-//W3C//DTD SVG 20010904//EN"
 "http://www.w3.org/TR/2001/REC-SVG-20010904/DTD/svg10.dtd">
<svg version="1.0" xmlns="http://www.w3.org/2000/svg"
 width="256.000000pt" height="256.000000pt" viewBox="0 0 256.000000 256.000000"
 preserveAspectRatio="xMidYMid meet">

<g transform="translate(0.000000,256.000000) scale(0.100000,-0.100000)"
fill="#000000" stroke="none">
<path d="M0 1280 l0 -1280 1280 0 1280 0 0 1280 0 1280 -1280 0 -1280 0 0
-1280z m1500 1204 c425 -75 786 -381 934 -792 109 -304 88 -667 -56 -957 -81
-162 -224 -332 -372 -442 -319 -237 -761 -301 -1138 -167 -179 64 -361 184
-487 321 -493 535 -420 1374 158 1809 279 209 613 288 961 228z"/>
<path d="M1105 2469 c-254 -37 -501 -165 -685 -355 -186 -193 -293 -408 -331
-664 -18 -125 -7 -342 24 -460 106 -406 412 -730 807 -854 698 -220 1437 241
1546 964 109 728 -462 1387 -1196 1379 -58 -1 -132 -5 -165 -10z m-213 -609
l-123 -5 91 -90 c51 -49 141 -142 201 -206 l109 -117 25 -227 c14 -125 25
-233 25 -241 0 -10 -15 -14 -53 -14 -30 0 -56 -2 -59 -5 -2 -3 5 -58 18 -123
12 -64 21 -118 20 -119 -2 -3 -129 147 -140 165 -4 7 -18 85 -32 175 -27 177
-29 189 -37 167 -3 -8 -13 -37 -23 -65 l-17 -49 -66 70 c-36 39 -106 114 -155
168 l-89 96 79 166 c96 202 91 188 66 175 -11 -6 -23 -11 -26 -11 -3 0 -6 93
-6 208 l0 207 158 -160 157 -160 -123 -5z m968 115 c0 -113 -3 -205 -6 -205
-3 0 -14 5 -25 10 -10 6 -19 8 -19 5 0 -3 36 -82 80 -176 l80 -170 -152 -165
c-83 -90 -155 -161 -159 -157 -3 5 -14 32 -24 61 -9 29 -19 52 -21 49 -2 -2
-16 -80 -30 -173 l-26 -169 -56 -68 c-32 -38 -65 -79 -75 -90 l-18 -22 6 30
c14 78 35 201 35 213 0 8 -18 12 -55 12 -66 0 -63 -26 -31 274 l24 219 203
203 204 204 -130 0 -129 0 154 159 c85 87 158 159 163 160 4 0 7 -91 7 -204z
m-670 -1450 c0 -5 -2 -4 -130 48 -100 41 -97 44 -80 -78 l12 -84 41 -3 42 -3
-36 -22 c-20 -13 -40 -23 -46 -23 -5 0 -24 62 -42 138 -19 75 -36 145 -39 155
-4 14 28 2 137 -52 77 -39 141 -73 141 -76z m456 128 c-3 -10 -17 -65 -31
-123 -14 -58 -31 -122 -36 -142 l-10 -38 -41 28 -42 27 40 3 41 3 12 95 c7 53
11 97 9 99 -2 2 -51 -16 -110 -40 -60 -24 -108 -40 -108 -36 0 6 257 138 273
140 5 1 6 -7 3 -16z m-771 -34 c9 -14 76 -271 72 -275 -2 -2 -23 47 -47 109
-24 61 -49 127 -57 145 -12 30 -12 32 6 32 11 0 23 -5 26 -11z m797 -129 c-30
-77 -57 -138 -59 -137 -5 6 60 251 70 265 5 6 17 12 27 12 16 0 10 -20 -38
-140z m-313 23 c0 -47 -3 -62 -9 -48 -5 11 -9 35 -9 53 l-1 32 -60 0 c-65 0
-61 6 -73 -95 -2 -16 -5 5 -6 48 l-1 77 80 0 80 0 -1 -67z"/>
</g>
</svg>
